<svg xmlns="http://www.w3.org/2000/svg" xmlns:xlink="http://www.w3.org/1999/xlink" viewBox="0,0,256,256" width="100px" height="100px" fill-rule="nonzero"><g fill-opacity="0" fill="#dddddd" fill-rule="nonzero" stroke="none" stroke-width="1" stroke-linecap="butt" stroke-linejoin="miter" stroke-miterlimit="10" stroke-dasharray="" stroke-dashoffset="0" font-family="none" font-weight="none" font-size="none" text-anchor="none" style="mix-blend-mode: normal"><path d="M0,256v-256h256v256z" id="bgRectangle"></path></g><g fill="#000000" fill-rule="nonzero" stroke="none" stroke-width="1" stroke-linecap="butt" stroke-linejoin="miter" stroke-miterlimit="10" stroke-dasharray="" stroke-dashoffset="0" font-family="none" font-weight="none" font-size="none" text-anchor="none" style="mix-blend-mode: normal"><g transform="scale(2.56,2.56)"><path d="M29.96094,17.30664c-7.168,0 -13,5.832 -13,13v39c0,7.168 5.832,13 13,13h39c7.168,0 13,-5.831 13,-13v-25c0,-0.552 -0.448,-1 -1,-1c-0.552,0 -1,0.448 -1,1v25c0,6.065 -4.935,11 -11,11h-39c-6.065,0 -11,-4.935 -11,-11v-39c0,-6.065 4.935,-11 11,-11h39c6.065,0 11,4.935 11,11c0,0.552 0.448,1 1,1c0.552,0 1,-0.448 1,-1c0,-7.168 -5.832,-13 -13,-13zM32.79883,22.30664c-5.976,0 -10.83789,4.86189 -10.83789,10.83789v33.32617c0,5.976 4.86189,10.83594 10.83789,10.83594h33.32422c5.975,0 10.83789,-4.85994 10.83789,-10.83594v-3.66406c0,-0.276 -0.224,-0.5 -0.5,-0.5c-0.276,0 -0.5,0.224 -0.5,0.5v3.66406c0,5.424 -4.41389,9.83594 -9.83789,9.83594h-33.32422c-5.424,0 -9.83789,-4.41194 -9.83789,-9.83594v-33.32617c0,-5.424 4.41389,-9.83789 9.83789,-9.83789h33.66211c0.276,0 0.5,-0.224 0.5,-0.5c0,-0.276 -0.224,-0.5 -0.5,-0.5zM84.25195,30.41211c-0.633,0 -1.22787,0.24822 -1.67187,0.69922l-33.125,32.83984l-9.70312,-10.30664c-0.46,-0.467 -1.0545,-0.7168 -1.6875,-0.7168c-0.633,0 -1.22787,0.24822 -1.67187,0.69922c-0.911,0.924 -0.911,2.42561 0,3.34961l11.50781,11.67188c0.43,0.437 1.01358,0.67578 1.64258,0.67578c0.062,0 0.12355,-0.00086 0.18555,-0.00586c0.075,0.016 0.16648,0.0293 0.27148,0.0293c0.163,0 0.29419,-0.03273 0.36719,-0.05273c0.126,-0.016 0.26262,-0.04784 0.39062,-0.08984c0.122,-0.044 0.20411,-0.07614 0.28711,-0.11914c0.233,-0.109 0.447,-0.25745 0.625,-0.43945l34.24609,-34.18164c0.916,-0.929 0.91586,-2.43247 0.00586,-3.35547c-0.444,-0.449 -1.03692,-0.69727 -1.66992,-0.69727zM84.25195,31.41211c0.348,0 0.69498,0.13339 0.95898,0.40039c0.527,0.535 0.527,1.41031 0,1.94531l-34.25391,34.18945c-0.108,0.11 -0.23228,0.18509 -0.36328,0.24609c-0.048,0.024 -0.09648,0.0445 -0.14648,0.0625c-0.085,0.028 -0.17177,0.04369 -0.25977,0.05469c-0.064,0.009 -0.1215,0.03906 -0.1875,0.03906c-0.071,0 -0.13122,-0.03002 -0.19922,-0.04102c-0.005,-0.001 -0.01062,-0.00095 -0.01562,-0.00195c-0.08,0.013 -0.16119,0.01953 -0.24219,0.01953c-0.339,0 -0.67464,-0.11791 -0.93164,-0.37891l-11.50781,-11.67187c-0.527,-0.535 -0.527,-1.41031 0,-1.94531c0.264,-0.267 0.61098,-0.40039 0.95898,-0.40039c0.348,0 0.69498,0.13339 0.95898,0.40039l10.41016,11.05469l33.86133,-33.57227c0.264,-0.268 0.61098,-0.40039 0.95898,-0.40039zM76.46094,52.30664c-0.276,0 -0.5,0.224 -0.5,0.5v2c0,0.276 0.224,0.5 0.5,0.5c0.276,0 0.5,-0.224 0.5,-0.5v-2c0,-0.276 -0.224,-0.5 -0.5,-0.5zM76.46094,56.30664c-0.276,0 -0.5,0.224 -0.5,0.5v4c0,0.276 0.224,0.5 0.5,0.5c0.276,0 0.5,-0.224 0.5,-0.5v-4c0,-0.276 -0.224,-0.5 -0.5,-0.5z"></path></g></g></svg>